# xmcd
#
# Track frame offsets:
#	150
#	16055
#	30726
#	45231
#	56546
#	71067
#	88122
#	102005
#	118682
#	132910
#	149316
#	163681
#	181174
#	195199
#
# Disc length: 2794 seconds
#
# Revision: 0
# Processed by: cddbd v1.5.2PL0 Copyright (c) Steve Scherf et al.
# Submitted via: EasyCDDAExtractor 16.0.6.1
#
DISCID=b00ae80e
DTITLE=HAMAK BAND - ŚWIAT JEST KOBIETĄ
DYEAR=2013
DGENRE=Rock and Roll
TTITLE0=GŁOWA W CHMURACH
TTITLE1=ZJEŚĆ NA KOLACJE
TTITLE2=DO BIEGU
TTITLE3=BOGU DUCHA WINNI
TTITLE4=ŁATWIEJ TRUDNIEJ
TTITLE5=A JA CZEKAM
TTITLE6=PRZEPRASZAM WSZYSTKICH LUDZI
TTITLE7=W ZŁOTO ZMIENIĘ SIĘ
TTITLE8=NIE POWIESZ MI
TTITLE9=ŚWIAT JEST KOBIETĄ
TTITLE10=HAMAK
TTITLE11=SZEPT WIATRU
TTITLE12=PÓJDĘ TAM
TTITLE13=ŁATWIEJ TRUDNIEJ [WERSJA NA LATO]
EXTD=
EXTT0=
EXTT1=
EXTT2=
EXTT3=
EXTT4=
EXTT5=
EXTT6=
EXTT7=
EXTT8=
EXTT9=
EXTT10=
EXTT11=
EXTT12=
EXTT13=
PLAYORDER=
